<?xml version="1.0" encoding="UTF-8"?>
<svg id="_Слой_2" data-name="Слой 2" xmlns="http://www.w3.org/2000/svg" viewBox="0 0 50 50">
  <defs>
    <style>
      .cls-1 {
        fill: #1e3d59;
      }
    </style>
  </defs>
  <g id="_Слой_1-2" data-name="Слой 1">
    <path class="cls-1" d="m18,4c7.72,0,14,6.28,14,14s-6.28,14-14,14-14-6.28-14-14,6.28-14,14-14m0-4C8.06,0,0,8.06,0,18s8.06,18,18,18,18-8.06,18-18S27.94,0,18,0h0Z"/>
    <path class="cls-1" d="m48,50c-.51,0-1.02-.2-1.41-.59l-18-18c-.78-.78-.78-2.05,0-2.83.78-.78,2.05-.78,2.83,0l18,18c.78.78.78,2.05,0,2.83-.39.39-.9.59-1.41.59Z"/>
  </g>
</svg>