<?xml version="1.0" encoding="UTF-8"?>
<svg id="_Слой_2" data-name="Слой 2" xmlns="http://www.w3.org/2000/svg" viewBox="0 0 50 50">
  <defs>
    <style>
      .cls-1 {
        fill: #fff;
      }
    </style>
  </defs>
  <g id="_Слой_1-2" data-name="Слой 1">
    <path class="cls-1" d="m24.75,50C10.96,49.86-.14,38.53,0,24.75S11.47-.14,25.25,0s24.89,11.47,24.75,25.25c-.14,13.78-11.47,24.89-25.25,24.75Zm.45-45c-11.03-.11-20.09,8.77-20.2,19.8s8.77,20.09,19.8,20.2,20.09-8.77,20.2-19.8S36.23,5.11,25.2,5Z"/>
    <path class="cls-1" d="m42.5,25h-2c0-8.55-6.95-15.5-15.5-15.5s-15.5,6.95-15.5,15.5h-2c0-9.65,7.85-17.5,17.5-17.5s17.5,7.85,17.5,17.5Z"/>
    <path class="cls-1" d="m32.49,13.49s-3.45,3.46-7.05,7.05c-.15-.01-.29-.04-.44-.04-2.49,0-4.5,2.01-4.5,4.5,0,.15.03.3.04.44-1.79,1.79-3.06,3.06-3.06,3.06l7.02,4,1.29-3.08c2.1-.38,3.71-2.21,3.71-4.42,0-.94-.29-1.81-.78-2.53l3.77-8.98Z"/>
  </g>
</svg>