<?xml version="1.0" encoding="UTF-8"?>
<svg id="_Слой_2" data-name="Слой 2" xmlns="http://www.w3.org/2000/svg" viewBox="0 0 79.25 63.76">
  <defs>
    <style>
      .cls-1 {
        fill: #fff;
      }
    </style>
  </defs>
  <g id="_Слой_1-2" data-name="Слой 1">
    <g>
      <path class="cls-1" d="m2.39,24.85h36.82c.08,0,.15,0,.23-.01,6.64-.24,11.97-5.71,11.97-12.41S46.02.19,39.32,0c-.04,0-.07,0-.11,0-.02,0-.04,0-.05,0-.06,0-.11,0-.17,0h0c-6.75.13-12.2,5.65-12.2,12.43,0,1.32,1.07,2.39,2.39,2.39s2.39-1.07,2.39-2.39c0-4.19,3.39-7.6,7.58-7.63,4.13.09,7.46,3.48,7.46,7.63s-3.42,7.63-7.63,7.63H2.39c-1.32,0-2.39,1.07-2.39,2.39s1.07,2.39,2.39,2.39Z"/>
      <path class="cls-1" d="m67.16,9.29s-.07,0-.11,0c-.02,0-.04,0-.05,0-.06,0-.11,0-.17,0h0c-6.75.13-12.2,5.65-12.2,12.43,0,1.32,1.07,2.39,2.39,2.39s2.39-1.07,2.39-2.39c0-4.19,3.39-7.6,7.58-7.63,4.13.09,7.46,3.48,7.46,7.63s-3.42,7.63-7.63,7.63H2.39c-1.32,0-2.39,1.07-2.39,2.39s1.07,2.39,2.39,2.39h64.66c.08,0,.15,0,.23-.01,6.64-.24,11.97-5.71,11.97-12.41s-5.39-12.24-12.09-12.41Z"/>
      <path class="cls-1" d="m55.9,38.93c-.07,0-.15-.01-.23-.01H18.86c-1.32,0-2.39,1.07-2.39,2.39s1.07,2.39,2.39,2.39h36.59c4.21,0,7.63,3.42,7.63,7.63s-3.33,7.54-7.46,7.63c-4.18-.03-7.58-3.44-7.58-7.63,0-1.32-1.07-2.39-2.39-2.39s-2.39,1.07-2.39,2.39c0,6.77,5.45,12.3,12.2,12.42h0c.06,0,.11,0,.17,0,.02,0,.04,0,.05,0,.04,0,.07,0,.11,0,6.7-.18,12.09-5.68,12.09-12.41s-5.33-12.17-11.97-12.41Z"/>
      <path class="cls-1" d="m11.08,38.91H2.39c-1.32,0-2.39,1.07-2.39,2.39s1.07,2.39,2.39,2.39h8.68c1.32,0,2.39-1.07,2.39-2.39s-1.07-2.39-2.39-2.39Z"/>
    </g>
  </g>
</svg>