<?xml version="1.0" encoding="UTF-8"?>
<svg id="_Слой_2" data-name="Слой 2" xmlns="http://www.w3.org/2000/svg" viewBox="0 0 223.57 223.38">
  <defs>
    <style>
      .cls-1 {
        fill: #fff;
      }

      .cls-2 {
        fill: #fcbf20;
      }

      .cls-3 {
        fill: #1e3d59;
      }

      .cls-4 {
        fill: none;
      }
    </style>
  </defs>
  <g id="_Слой_1-2" data-name="Слой 1">
    <rect class="cls-1" x="123.27" y="11.22" width="89.08" height="89.08" transform="translate(-7.24 30.69) rotate(-10.23)"/>
    <rect class="cls-1" x="11.18" y="123.04" width="89.16" height="89.16" transform="translate(-28.89 12.57) rotate(-10.23)"/>
    <rect class="cls-3" x="7.76" y="7.76" width="96" height="96" transform="translate(-9.02 10.79) rotate(-10.23)"/>
    <rect class="cls-3" x="119.81" y="119.62" width="96" height="96" transform="translate(-27.1 32.47) rotate(-10.23)"/>
    <path class="cls-3" d="m74.11,178.9c-.03-.88-.13-1.75-.29-2.6-1.12-6.71-7.71-14.94-11.68-22.6-4.51-8.71-6.38-16.46-6.38-16.46,0,0-2.3,8.21-6.9,17.24-3.65,7.15-9.62,14.53-10.94,20.8-.29,1.18-.46,2.41-.5,3.67-.01.23-.02.46-.02.68,0,10.14,8.22,18.37,18.37,18.37s18.37-8.22,18.37-18.37c0-.24,0-.48-.02-.72Z"/>
    <path class="cls-3" d="m195.44,53.2h-5.39l.95-.95c.98-.98.98-2.57,0-3.55-.98-.98-2.57-.98-3.55,0l-4.51,4.51h-8.94l6.45-6.45h6.01c1.39,0,2.51-1.13,2.51-2.51h0c0-1.39-1.13-2.51-2.51-2.51h-.98l3.68-3.68c1-1,1-2.63,0-3.63-1-1-2.63-1-3.63,0l-4.01,4.01v-1.64c0-1.39-1.13-2.51-2.51-2.51s-2.51,1.13-2.51,2.51v6.67l-6.12,6.12v-9.12l4.25-4.25c.98-.98.98-2.57,0-3.55-.98-.98-2.57-.98-3.55,0l-.7.7v-5.2c0-1.42-1.15-2.57-2.57-2.57s-2.57,1.15-2.57,2.57v5.67l-1.16-1.16c-.98-.98-2.57-.98-3.55,0-.98.98-.98,2.57,0,3.55l4.72,4.72v8.66l-6.45-6.45v-6.01c0-1.39-1.13-2.51-2.51-2.51h0c-1.39,0-2.51,1.13-2.51,2.51v.98l-3.68-3.68c-1-1-2.63-1-3.63,0-1,1-1,2.63,0,3.63l4.01,4.01h-1.64c-1.39,0-2.51,1.13-2.51,2.51s1.13,2.51,2.51,2.51h6.67s6.12,6.12,6.12,6.12h-9.12l-4.25-4.25c-.98-.98-2.57-.98-3.55,0h0c-.98.98-.98,2.57,0,3.55l.7.7h-5.2c-1.42,0-2.57,1.15-2.57,2.57,0,1.42,1.15,2.57,2.57,2.57h5.67l-1.16,1.16c-.98.98-.98,2.57,0,3.55.98.98,2.57.98,3.55,0l4.72-4.72h8.66l-6.36,6.36h-6.3c-1.39,0-2.51,1.13-2.51,2.51h0c0,1.39,1.13,2.51,2.51,2.51h1.28l-3.77,3.77c-1,1-1,2.63,0,3.63,1,1,2.63,1,3.63,0l3.81-3.81v1.35c0,1.39,1.13,2.51,2.51,2.51s2.51-1.13,2.51-2.51v-6.38l6.32-6.32v8.99l-4.46,4.46c-.98.98-.98,2.57,0,3.55h0c.98.98,2.57.98,3.55,0l.9-.9v5.33c0,1.42,1.15,2.57,2.57,2.57,1.42,0,2.57-1.15,2.57-2.57v-5.39l.95.95c.98.98,2.57.98,3.55,0,.98-.98.98-2.57,0-3.55l-4.51-4.51v-8.94l6.36,6.36v6.3c0,1.39,1.13,2.51,2.51,2.51h0c1.39,0,2.51-1.13,2.51-2.51v-1.28l3.77,3.77c1,1,2.63,1,3.63,0,1-1,1-2.63,0-3.63l-3.81-3.81h1.35c1.39,0,2.51-1.13,2.51-2.51s-1.13-2.51-2.51-2.51h-6.38l-6.32-6.32h8.99l4.46,4.46c.98.98,2.57.98,3.55,0h0c.98-.98.98-2.57,0-3.55l-.9-.9h5.33c1.42,0,2.57-1.15,2.57-2.57s-1.15-2.57-2.57-2.57Z"/>
    <path class="cls-4" d="m71.37,41.48c-2.97-.06-5.48.96-7.3,2.07,0,0,0,0,0,0-1.93-1.75-4.49-2.81-7.29-2.81-3.39,0-6.42,1.56-8.42,4-.8-.19-1.63-.29-2.48-.29-4.73,0-8.75,3.02-10.26,7.25-.18-.01-.36-.02-.55-.02-5.26,0-9.52,4.28-9.52,9.55s4.21,9.5,9.42,9.55h0s36.4,0,36.4,0c8.06,0,14.6-6.56,14.6-14.65,0-8.69-7.73-14.52-14.6-14.65Z"/>
    <path class="cls-1" d="m70.67,72.61h-34.76c-6.35-.06-11.5-5.28-11.5-11.62s4.6-11,10.46-11.57c2.42-4.65,7.56-7.49,12.9-6.88,2.4-2.32,5.59-3.62,8.96-3.62,2.59,0,5.1.78,7.22,2.21,2.19-1.04,4.43-1.54,6.77-1.5h0c7.92.15,16.39,6.81,16.39,16.49,0,9.09-7.38,16.49-16.44,16.49Zm-34.68-18.25c-3.63,0-6.59,2.97-6.59,6.62s2.93,6.59,6.52,6.62h34.74c6.31,0,11.44-5.15,11.44-11.49s-6.05-11.39-11.49-11.49h0c-1.93-.07-3.8.51-5.63,1.62-.94.57-2.15.46-2.97-.28-1.45-1.32-3.33-2.04-5.29-2.04-2.37,0-4.6,1.06-6.11,2.9-.6.74-1.57,1.06-2.5.85-3.93-.91-7.92,1.34-9.25,5.06-.37,1.04-1.4,1.73-2.5,1.66-.13,0-.25-.01-.38-.01Z"/>
    <g>
      <path class="cls-2" d="m167.81,150.13c1.32,0,2.38-1.07,2.38-2.38v-7.94c0-1.32-1.07-2.38-2.38-2.38s-2.38,1.07-2.38,2.38v7.94c0,1.32,1.07,2.38,2.38,2.38Z"/>
      <path class="cls-2" d="m167.81,185.11c-1.32,0-2.38,1.07-2.38,2.38v7.94c0,1.32,1.07,2.38,2.38,2.38s2.38-1.07,2.38-2.38v-7.94c0-1.32-1.07-2.38-2.38-2.38Z"/>
      <path class="cls-2" d="m195.62,165.24h-7.94c-1.32,0-2.38,1.07-2.38,2.38s1.07,2.38,2.38,2.38h7.94c1.32,0,2.38-1.07,2.38-2.38s-1.07-2.38-2.38-2.38Z"/>
      <path class="cls-2" d="m150.32,167.62c0-1.32-1.07-2.38-2.38-2.38h-7.94c-1.32,0-2.38,1.07-2.38,2.38s1.07,2.38,2.38,2.38h7.94c1.32,0,2.38-1.07,2.38-2.38Z"/>
      <path class="cls-2" d="m183.55,155.26l5.61-5.61c.93-.93.93-2.44,0-3.37s-2.44-.93-3.37,0l-5.61,5.61c-.93.93-.93,2.44,0,3.37s2.44.93,3.37,0Z"/>
      <path class="cls-2" d="m152.08,179.99l-5.61,5.61c-.93.93-.93,2.44,0,3.37s2.44.93,3.37,0l5.61-5.61c.93-.93.93-2.44,0-3.37s-2.44-.93-3.37,0Z"/>
      <path class="cls-2" d="m183.55,179.99c-.93-.93-2.44-.93-3.37,0-.93.93-.93,2.44,0,3.37l5.61,5.61c.93.93,2.44.93,3.37,0s.93-2.44,0-3.37l-5.61-5.61Z"/>
      <path class="cls-2" d="m152.08,155.26c.93.93,2.44.93,3.37,0s.93-2.44,0-3.37l-5.61-5.61c-.93-.93-2.44-.93-3.37,0s-.93,2.44,0,3.37l5.61,5.61Z"/>
      <path class="cls-2" d="m167.65,152.14c-8.68,0-15.71,7.04-15.71,15.71s7.04,15.71,15.71,15.71,15.71-7.04,15.71-15.71-7.04-15.71-15.71-15.71Zm0,27.25c-6.37,0-11.53-5.16-11.53-11.53s5.16-11.53,11.53-11.53,11.53,5.16,11.53,11.53-5.16,11.53-11.53,11.53Z"/>
    </g>
    <path class="cls-3" d="m94.47,111.86L0,128.91l17.05,94.47,94.47-17.05-17.05-94.47ZM6.76,133.61l83.02-14.98,14.98,83.02-83.02,14.98-14.98-83.02Z"/>
    <path class="cls-3" d="m206.52,0l-94.47,17.05,17.05,94.47,94.47-17.05L206.52,0Zm-87.71,21.75l83.02-14.98,14.98,83.02-83.02,14.98-14.98-83.02Z"/>
  </g>
</svg>