<?xml version="1.0" encoding="UTF-8"?>
<svg id="_Слой_2" data-name="Слой 2" xmlns="http://www.w3.org/2000/svg" viewBox="0 0 53.26 26.38">
  <defs>
    <style>
      .cls-1 {
        fill: #d1cfcf;
      }

      .cls-2 {
        fill: #1e3d59;
      }
    </style>
  </defs>
  <g id="_Слой_1-2" data-name="Слой 1">
    <path class="cls-1" d="m40.39.65c-2.62-.05-4.83.85-6.44,1.82,0,0,0,0,0,0-1.7-1.53-3.96-2.47-6.43-2.47-2.99,0-5.66,1.37-7.42,3.51-.7-.16-1.43-.25-2.18-.25-4.17,0-7.72,2.66-9.05,6.37-.16,0-.32-.01-.48-.01C3.76,9.61,0,13.36,0,18s3.71,8.34,8.31,8.39h0s32.08,0,32.08,0c7.11,0,12.87-5.76,12.87-12.87,0-7.63-6.82-12.75-12.87-12.87Z"/>
    <path class="cls-2" d="m48.04,17.19c-.01-.31-.05-.61-.1-.91-.39-2.34-2.69-5.21-4.07-7.88-1.57-3.04-2.23-5.74-2.23-5.74,0,0-.8,2.86-2.41,6.01-1.27,2.49-3.35,5.07-3.82,7.25-.1.41-.16.84-.18,1.28,0,.08,0,.16,0,.24,0,3.54,2.87,6.4,6.4,6.4s6.4-2.87,6.4-6.4c0-.08,0-.17,0-.25Z"/>
  </g>
</svg>