<?xml version="1.0" encoding="UTF-8"?>
<svg id="_Слой_2" data-name="Слой 2" xmlns="http://www.w3.org/2000/svg" viewBox="0 0 53.26 33.29">
  <defs>
    <style>
      .cls-1 {
        fill: #d1cfcf;
      }

      .cls-2 {
        fill: #ffa21f;
      }
    </style>
  </defs>
  <g id="_Слой_1-2" data-name="Слой 1">
    <path class="cls-1" d="m40.39.65c-2.62-.05-4.83.85-6.44,1.82,0,0,0,0,0,0-1.7-1.53-3.96-2.47-6.43-2.47-2.99,0-5.66,1.37-7.42,3.51-.7-.16-1.43-.25-2.18-.25-4.17,0-7.72,2.66-9.05,6.37-.16,0-.32-.01-.48-.01C3.76,9.61,0,13.36,0,18s3.71,8.34,8.31,8.39h0s32.08,0,32.08,0c7.11,0,12.87-5.76,12.87-12.87,0-7.63-6.82-12.75-12.87-12.87Z"/>
    <polygon class="cls-2" points="27.64 33.29 32.45 24.14 26.04 23.83 35.65 7.74 46.09 8.24 32.62 20.56 39.49 20.89 27.64 33.29"/>
  </g>
</svg>