<?xml version="1.0" encoding="UTF-8"?>
<svg id="_Слой_2" data-name="Слой 2" xmlns="http://www.w3.org/2000/svg" viewBox="0 0 60.38 60.38">
  <defs>
    <style>
      .cls-1 {
        fill: #fcbf20;
      }
    </style>
  </defs>
  <g id="_Слой_1-2" data-name="Слой 1">
    <g>
      <path class="cls-1" d="m30.19,12.7c1.32,0,2.38-1.07,2.38-2.38V2.38c0-1.32-1.07-2.38-2.38-2.38s-2.38,1.07-2.38,2.38v7.94c0,1.32,1.07,2.38,2.38,2.38Z"/>
      <path class="cls-1" d="m30.19,47.68c-1.32,0-2.38,1.07-2.38,2.38v7.94c0,1.32,1.07,2.38,2.38,2.38s2.38-1.07,2.38-2.38v-7.94c0-1.32-1.07-2.38-2.38-2.38Z"/>
      <path class="cls-1" d="m58,27.81h-7.94c-1.32,0-2.38,1.07-2.38,2.38s1.07,2.38,2.38,2.38h7.94c1.32,0,2.38-1.07,2.38-2.38s-1.07-2.38-2.38-2.38Z"/>
      <path class="cls-1" d="m12.7,30.19c0-1.32-1.07-2.38-2.38-2.38H2.38c-1.32,0-2.38,1.07-2.38,2.38s1.07,2.38,2.38,2.38h7.94c1.32,0,2.38-1.07,2.38-2.38Z"/>
      <path class="cls-1" d="m45.92,17.82l5.61-5.61c.93-.93.93-2.44,0-3.37s-2.44-.93-3.37,0l-5.61,5.61c-.93.93-.93,2.44,0,3.37s2.44.93,3.37,0Z"/>
      <path class="cls-1" d="m14.46,42.55l-5.61,5.61c-.93.93-.93,2.44,0,3.37s2.44.93,3.37,0l5.61-5.61c.93-.93.93-2.44,0-3.37s-2.44-.93-3.37,0Z"/>
      <path class="cls-1" d="m45.92,42.55c-.93-.93-2.44-.93-3.37,0-.93.93-.93,2.44,0,3.37l5.61,5.61c.93.93,2.44.93,3.37,0s.93-2.44,0-3.37l-5.61-5.61Z"/>
      <path class="cls-1" d="m14.46,17.82c.93.93,2.44.93,3.37,0s.93-2.44,0-3.37l-5.61-5.61c-.93-.93-2.44-.93-3.37,0s-.93,2.44,0,3.37l5.61,5.61Z"/>
      <path class="cls-1" d="m30.02,14.71c-8.68,0-15.71,7.04-15.71,15.71s7.04,15.71,15.71,15.71,15.71-7.04,15.71-15.71-7.04-15.71-15.71-15.71Zm0,27.25c-6.37,0-11.53-5.16-11.53-11.53s5.16-11.53,11.53-11.53,11.53,5.16,11.53,11.53-5.16,11.53-11.53,11.53Z"/>
    </g>
  </g>
</svg>