<?xml version="1.0" encoding="UTF-8"?>
<svg id="_Слой_2" data-name="Слой 2" xmlns="http://www.w3.org/2000/svg" viewBox="0 0 60.96 41.58">
  <defs>
    <style>
      .cls-1 {
        fill: #d1cfcf;
      }

      .cls-2 {
        fill: #ffa21f;
      }
    </style>
  </defs>
  <g id="_Слой_1-2" data-name="Слой 1">
    <g>
      <path class="cls-2" d="m39.17,9.53c-6.76,0-12.26,5.5-12.26,12.26s5.5,12.26,12.26,12.26,12.26-5.5,12.26-12.26-5.5-12.26-12.26-12.26Zm0,21.79c-5.26,0-9.53-4.28-9.53-9.53s4.28-9.53,9.53-9.53,9.53,4.28,9.53,9.53-4.28,9.53-9.53,9.53Z"/>
      <path class="cls-2" d="m39.17,8.17c.94,0,1.7-.76,1.7-1.7V1.7c0-.94-.76-1.7-1.7-1.7s-1.7.76-1.7,1.7v4.77c0,.94.76,1.7,1.7,1.7Z"/>
      <path class="cls-2" d="m51.2,12.16l3.37-3.37c.66-.66.66-1.74,0-2.41-.66-.66-1.74-.66-2.41,0l-3.37,3.37c-.66.66-.66,1.74,0,2.41s1.74.66,2.41,0Z"/>
      <path class="cls-2" d="m59.25,20.09h-4.77c-.94,0-1.7.76-1.7,1.7s.76,1.7,1.7,1.7h4.77c.94,0,1.7-.76,1.7-1.7s-.76-1.7-1.7-1.7Z"/>
      <path class="cls-2" d="m29.54,12.16c.66-.66.66-1.74,0-2.41l-3.37-3.37c-.66-.66-1.74-.66-2.41,0-.66.66-.66,1.74,0,2.41l3.37,3.37c.66.66,1.74.66,2.41,0Z"/>
    </g>
    <path class="cls-1" d="m40.39,15.85c-2.62-.05-4.83.85-6.44,1.82,0,0,0,0,0,0-1.7-1.53-3.96-2.47-6.43-2.47-2.99,0-5.66,1.37-7.42,3.51-.7-.16-1.43-.25-2.18-.25-4.17,0-7.72,2.66-9.05,6.37-.16,0-.32-.01-.48-.01-4.63,0-8.39,3.76-8.39,8.39s3.71,8.34,8.31,8.39h0s32.08,0,32.08,0c7.11,0,12.87-5.76,12.87-12.87,0-7.63-6.82-12.75-12.87-12.87Z"/>
  </g>
</svg>