<?xml version="1.0" encoding="UTF-8"?>
<svg id="_Слой_2" data-name="Слой 2" xmlns="http://www.w3.org/2000/svg" viewBox="0 0 53.26 26.38">
  <defs>
    <style>
      .cls-1 {
        fill: #d1cfcf;
      }

      .cls-2 {
        fill: #1e3d59;
      }
    </style>
  </defs>
  <g id="_Слой_1-2" data-name="Слой 1">
    <path class="cls-1" d="m40.39.65c-2.62-.05-4.83.85-6.44,1.82,0,0,0,0,0,0-1.7-1.53-3.96-2.47-6.43-2.47-2.99,0-5.66,1.37-7.42,3.51-.7-.16-1.43-.25-2.18-.25-4.17,0-7.72,2.66-9.05,6.37-.16,0-.32-.01-.48-.01C3.76,9.61,0,13.36,0,18s3.71,8.34,8.31,8.39h0s32.08,0,32.08,0c7.11,0,12.87-5.76,12.87-12.87,0-7.63-6.82-12.75-12.87-12.87Z"/>
    <path class="cls-2" d="m47.6,16.53h-1.39l.25-.25c.25-.25.25-.66,0-.91-.25-.25-.66-.25-.91,0l-1.16,1.16h-2.3l1.66-1.66h1.55c.36,0,.65-.29.65-.65h0c0-.36-.29-.65-.65-.65h-.25l.95-.95c.26-.26.26-.68,0-.93-.26-.26-.68-.26-.93,0l-1.03,1.03v-.42c0-.36-.29-.65-.65-.65s-.65.29-.65.65v1.72l-1.57,1.57v-2.35l1.09-1.09c.25-.25.25-.66,0-.91s-.66-.25-.91,0l-.18.18v-1.34c0-.36-.3-.66-.66-.66s-.66.3-.66.66v1.46l-.3-.3c-.25-.25-.66-.25-.91,0-.25.25-.25.66,0,.91l1.21,1.21v2.23l-1.66-1.66v-1.55c0-.36-.29-.65-.65-.65h0c-.36,0-.65.29-.65.65v.25l-.95-.95c-.26-.26-.68-.26-.93,0-.26.26-.26.68,0,.93l1.03,1.03h-.42c-.36,0-.65.29-.65.65s.29.65.65.65h1.72s1.57,1.57,1.57,1.57h-2.35l-1.09-1.09c-.25-.25-.66-.25-.91,0h0c-.25.25-.25.66,0,.91l.18.18h-1.34c-.36,0-.66.3-.66.66,0,.36.3.66.66.66h1.46l-.3.3c-.25.25-.25.66,0,.91s.66.25.91,0l1.21-1.21h2.23l-1.64,1.64h-1.62c-.36,0-.65.29-.65.65h0c0,.36.29.65.65.65h.33l-.97.97c-.26.26-.26.68,0,.93.26.26.68.26.93,0l.98-.98v.35c0,.36.29.65.65.65s.65-.29.65-.65v-1.64l1.63-1.63v2.31l-1.15,1.15c-.25.25-.25.66,0,.91h0c.25.25.66.25.91,0l.23-.23v1.37c0,.36.3.66.66.66.36,0,.66-.3.66-.66v-1.39l.25.25c.25.25.66.25.91,0,.25-.25.25-.66,0-.91l-1.16-1.16v-2.3l1.64,1.64v1.62c0,.36.29.65.65.65h0c.36,0,.65-.29.65-.65v-.33l.97.97c.26.26.68.26.93,0,.26-.26.26-.68,0-.93l-.98-.98h.35c.36,0,.65-.29.65-.65s-.29-.65-.65-.65h-1.64l-1.63-1.63h2.31l1.15,1.15c.25.25.66.25.91,0h0c.25-.25.25-.66,0-.91l-.23-.23h1.37c.36,0,.66-.3.66-.66s-.3-.66-.66-.66Z"/>
    <path class="cls-2" d="m15.18,14.49l-2.66,6.87c-.4,1.05-1.58,1.57-2.63,1.16s-1.57-1.58-1.16-2.63l2.66-6.87c.4-1.05,1.58-1.57,2.63-1.16s1.57,1.58,1.16,2.63Z"/>
    <path class="cls-2" d="m22.18,14.49l-2.66,6.87c-.4,1.05-1.58,1.57-2.63,1.16s-1.57-1.58-1.16-2.63l2.66-6.87c.4-1.05,1.58-1.57,2.63-1.16s1.57,1.58,1.16,2.63Z"/>
    <path class="cls-2" d="m30.18,14.49l-2.66,6.87c-.4,1.05-1.58,1.57-2.63,1.16s-1.57-1.58-1.16-2.63l2.66-6.87c.4-1.05,1.58-1.57,2.63-1.16s1.57,1.58,1.16,2.63Z"/>
  </g>
</svg>