<?xml version="1.0" encoding="UTF-8"?>
<svg id="_Слой_2" data-name="Слой 2" xmlns="http://www.w3.org/2000/svg" viewBox="0 0 36.16 63.36">
  <defs>
    <style>
      .cls-1 {
        fill: #fff;
      }
    </style>
  </defs>
  <g id="_Слой_1-2" data-name="Слой 1">
    <path class="cls-1" d="m18.08,63.36C8.11,63.36,0,55.25,0,45.28c0-.23,0-.45.02-.69.04-1.2.21-2.41.5-3.59.8-3.81,3.27-7.8,5.89-12.03,1.32-2.14,2.69-4.34,3.77-6.47,3.84-7.52,5.81-14.46,5.83-14.53l2.24-7.98,1.95,8.05c.02.06,1.62,6.57,5.35,13.77,1.11,2.14,2.51,4.41,3.86,6.6,2.83,4.59,5.76,9.33,6.47,13.62.15.81.24,1.67.28,2.52.01.24.02.48.02.72,0,9.97-8.11,18.08-18.08,18.08Zm-.07-47.87c-.98,2.58-2.31,5.72-3.98,9-1.16,2.28-2.58,4.56-3.94,6.77-2.41,3.89-4.68,7.57-5.34,10.7-.23.96-.36,1.88-.39,2.81,0,.19-.01.35-.01.51,0,7.58,6.17,13.75,13.75,13.75s13.75-6.17,13.75-13.75c0-.17,0-.35-.01-.53v-.02c-.03-.65-.1-1.3-.22-1.95-.58-3.49-3.28-7.86-5.89-12.09-1.39-2.26-2.84-4.59-4.02-6.88-1.57-3.03-2.78-5.92-3.68-8.33Z"/>
  </g>
</svg>